# xmcd CD database file
#
# Track frame offsets:
#	150
#	29719
#	53502
#	89275
#	117325
#	147423
#	172433
#	196203
#	231051
#	260522
#
# Disc length: 3900 seconds
#
# Revision: 3
# Processed by: cddbd v1.5.2PL0 Copyright (c) Steve Scherf et al.
# Submitted via: CDex 1.51
#
DISCID=900f3a0a
DTITLE=Karl-Martin Almqvist - Stretching a portfolio
DYEAR=2008
DGENRE=Jazz
TTITLE0=Sentiment
TTITLE1=Senter
TTITLE2=And you
TTITLE3=In my flat
TTITLE4=Survival instincts
TTITLE5=Home
TTITLE6=Two step
TTITLE7=Smålandssviten
TTITLE8=Shoot
TTITLE9=Jacob street
EXTD=YEAR: 2008
EXTT0=
EXTT1=
EXTT2=
EXTT3=
EXTT4=
EXTT5=
EXTT6=
EXTT7=
EXTT8=
EXTT9=
PLAYORDER=
